<svg width="24.000000000000004" height="24.000000000000004" xmlns="http://www.w3.org/2000/svg" preserveAspectRatio="xMidYMid meet">
 <metadata>Created by potrace 1.13, written by Peter Selinger 2001-2015</metadata>

 <g>
  <title>background</title>
  <rect fill="none" id="canvas_background" height="26" width="26" y="-1" x="-1"/>
 </g>
 <g>
  <title>Layer 1</title>
  <g id="svg_1" transform="translate(0,64) scale(0.10000000149011612,-0.10000000149011612) ">
   <path stroke="null" id="svg_2" d="m83.981678,628.269407c-84.581896,-27.707863 -108.643987,-134.893542 -43.38468,-195.048769c15.31224,-14.218508 36.093137,-25.884977 45.572142,-25.884977c1.822886,0 3.645771,5.833234 3.645771,12.7602c0,12.031046 -0.729154,12.7602 -12.7602,12.7602c-12.7602,0 -15.31224,1.822886 -32.811943,24.062091c-16.041394,20.41632 -8.385274,22.603783 11.666468,3.281194c15.31224,-14.583086 27.343285,-16.405971 35.72856,-4.374926c5.10408,7.65612 5.10408,8.020697 -2.55204,10.937314c-21.874628,8.385274 -32.082788,15.31224 -37.186868,26.249554c-7.65612,15.676817 -7.65612,45.207565 0,55.780302c2.916617,4.374926 4.374926,9.843583 3.281194,11.666468c-3.645771,5.833234 1.822886,25.5204 6.562389,25.5204c2.55204,0 8.749851,-2.187463 13.853931,-5.10408c6.197811,-3.281194 21.874628,-5.10408 43.38468,-5.10408c21.510051,0 37.186868,1.822886 43.38468,5.10408c5.10408,2.916617 11.301891,5.10408 13.853931,5.10408c4.739503,0 10.20816,-19.687166 6.562389,-25.5204c-1.093731,-1.822886 0.364577,-7.291543 3.281194,-11.666468c6.562389,-9.114428 7.65612,-37.551445 2.55204,-51.405377c-5.10408,-13.124777 -18.228857,-24.062091 -33.905674,-28.437017c-12.031046,-3.281194 -13.489354,-4.374926 -10.20816,-10.572737c1.822886,-3.645771 3.645771,-16.770548 3.645771,-28.801594c0,-12.7602 1.458309,-22.239205 3.645771,-22.239205c18.958011,0 57.603188,32.082788 72.186274,60.155228c8.385274,15.676817 9.843583,22.96836 9.843583,49.217914c0,25.5204 -1.458309,34.270251 -8.749851,49.217914c-11.666468,22.96836 -33.905674,45.572142 -56.509457,56.509457c-21.874628,10.20816 -62.342691,13.124777 -84.581896,5.833234z"/>
  </g>
 </g>
</svg>
