<?xml version="1.0" encoding="UTF-8" standalone="no"?>
<!DOCTYPE svg PUBLIC "-//W3C//DTD SVG 1.1//EN" "http://www.w3.org/Graphics/SVG/1.1/DTD/svg11.dtd">
<svg version="1.1" xmlns="http://www.w3.org/2000/svg" xmlns:xlink="http://www.w3.org/1999/xlink" preserveAspectRatio="xMidYMid meet" width="24" height="24" viewBox="59.19463087248326 55.68456375838929 494.2483221476509 494.24832214765087"><defs><path d="M446.44 356.31C446.44 463.17 359.68 549.93 252.82 549.93C145.95 549.93 59.19 463.17 59.19 356.31C59.19 249.44 145.95 162.68 252.82 162.68C254.15 162.68 252.82 162.68 252.82 162.68C252.82 162.68 252.82 356.31 252.82 356.31C252.82 356.31 446.44 356.31 446.44 356.31C446.44 356.31 446.44 353.64 446.44 356.31C446.44 463.17 446.44 249.44 446.44 356.31Z" id="A8UnM1dFVr"></path><path d="M553.44 276.31C553.44 279.35 553.44 276.31 553.44 276.31C553.44 276.31 332.82 276.31 332.82 276.31C332.82 276.31 332.82 276.31 332.82 276.31C332.82 276.31 332.82 55.68 332.82 55.68C332.82 55.68 329.77 55.68 332.82 55.68C454.58 55.68 553.44 154.54 553.44 276.31Z" id="YnLDzriXAg"></path></defs><g visibility="visible"><g><use xlink:href="#A8UnM1dFVr" opacity="1" fill-opacity="1"></use></g><g><use xlink:href="#YnLDzriXAg" opacity="1" fill-opacity="1"></use></g></g></svg>
